<svg height="79" viewBox="0 0 79 79" width="79" xmlns="http://www.w3.org/2000/svg"><g fill="none" fill-rule="evenodd"><circle cx="39.614924" cy="39.99074" fill="#fff" r="38.777015"/><circle cx="59.590485" cy="12.439685" fill="#fff" r="12.208241"/><g transform="translate(12.078012 3.782942)"><g fill-rule="nonzero"><path d="m25.9089069 65.2029386c7.0098896 0 12.6925222-.9144546 12.6925222-2.0424097s-5.6826326-2.0423227-12.6925222-2.0423227c-7.0098897 0-12.6925222.9143676-12.6925222 2.0423227s5.6826325 2.0424097 12.6925222 2.0424097z" fill="#dfe8f7" fill-opacity=".5"/><circle cx="41.022495" cy="43.073793" fill="#457eff" r="9.352123"/><circle cx="38.00753" cy="31.932046" fill="#457eff" r="6.706799"/><circle cx="14.813762" cy="31.932133" fill="#457eff" r="5.295222"/><path d="m8.08339407 21.4595009c1.13265344 0 2.05085043.9181971 2.05085043 2.0508505v7.1530247c0 1.1326535-.91819699 2.0508505-2.05085043 2.0508505s-2.05085047-.918197-2.05085047-2.0508505v-7.1530247c0-1.1326534.91819703-2.0508505 2.05085047-2.0508505z" fill="#626f8a" transform="matrix(.98609233 .16619842 -.16619842 .98609233 4.614215 -.966732)"/><path d="m8.08339407 21.4595009c1.13265344 0 2.05085043.9181971 2.05085043 2.0508505v7.1530247c0 1.1326535-.91819699 2.0508505-2.05085043 2.0508505s-2.05085047-.918197-2.05085047-2.0508505v-7.1530247c0-1.1326534.91819703-2.0508505 2.05085047-2.0508505z" fill="#000" fill-opacity=".2" transform="matrix(.98609233 .16619842 -.16619842 .98609233 4.614215 -.966732)"/><path d="m6.2618435 23.2282955c.72906696 0 1.32009251.5910256 1.32009251 1.3200926v4.6042503c0 .7290669-.59102555 1.3200925-1.32009251 1.3200925-.72906697 0-1.32009252-.5910256-1.32009252-1.3200925v-4.6042503c0-.729067.59102555-1.3200926 1.32009252-1.3200926z" fill="#626f8a" transform="matrix(.98609233 .16619842 -.16619842 .98609233 4.5496 -.66728)"/><path d="m6.2618435 23.2282955c.72906696 0 1.32009251.5910256 1.32009251 1.3200926v4.6042503c0 .7290669-.59102555 1.3200925-1.32009251 1.3200925-.72906697 0-1.32009252-.5910256-1.32009252-1.3200925v-4.6042503c0-.729067.59102555-1.3200926 1.32009252-1.3200926z" fill="#000" fill-opacity=".2" transform="matrix(.98609233 .16619842 -.16619842 .98609233 4.5496 -.66728)"/><circle cx="12.131809" cy="41.440353" fill="#457eff" r="10.974152"/><circle cx="26.626847" cy="29.329099" fill="#457eff" r="12.49113"/><path d="m40.361175 52.415115h-29.580926l8.0995175-13.1609863h21.4814085z" fill="#457eff"/><circle cx="19.736817" cy="27.329459" fill="#ecf0f6" r="7.605905"/><circle cx="19.736904" cy="27.329633" fill="#fffefe" r="7.425898"/><circle cx="17.640052" cy="22.646385" fill="#454545" r="1.652717"/><path d="m34.1348173 40.0878346c.0751738 1.6766453-1.5057403 3.324371-3.1100864 3.3963218-1.6044332.0718637-3.6288989-1.5938061-3.6991075-3.1594765-.051829-1.1580072 1.7404951-2.0289081 3.3448412-2.1007717 1.6044332-.0719508 3.4125238.7060063 3.4643527 1.8639264z" fill="#fff"/><circle cx="42.211687" cy="29.189901" fill="#ecf0f6" r="5.565212"/><circle cx="42.210555" cy="29.189466" fill="#fffefe" r="5.433505"/><circle cx="41.766742" cy="31.337363" fill="#454545" r="1.342501"/><ellipse cx="42.256809" cy="39.464406" fill="#ffc6c6" rx="2.324438" ry="1.292553"/></g><path d="m43.7930366 39.086708c.0684665.0206445.1072293.0928566.0865848.1613231l-.3011306 1.0002556c-.0205574.0684665-.0927695.1072293-.1613231.0866719-.0684665-.0206445-.1072294-.0928566-.086672-.1614102l.3012178-1.0001684c.0205573-.0684665.0927695-.1072293.1613231-.086672z" fill="#000"/><path d="m44.2716923 39.086708c.0684665.0206445.1073165.0928566.086672.1613231l-.3011306 1.0002556c-.0206445.0684665-.0928566.1072293-.1613231.0866719-.0684666-.0206445-.1073165-.0928566-.086672-.1614102l.3011306-1.0001684c.0206445-.0684665.0928566-.1072293.1613231-.086672z" fill="#000"/><path d="m44.751045 39.0865338c.0684665.0205574.1073164.0928566.0866719.1613231l-.3011306 1.0001684c-.0206445.0684665-.0928566.1073165-.1613231.086672s-.1073165-.0928566-.086672-.1613231l.3011307-1.0001684c.0206444-.0684665.0928566-.1073165.1613231-.086672z" fill="#000"/><ellipse cx="17.385176" cy="39.455173" fill="#ffc6c6" fill-rule="nonzero" rx="2.324438" ry="1.292553" transform="matrix(.99749626 .07071926 -.07071926 .99749626 2.833769 -1.130681)"/><path d="m15.689454 39.2662366c.0684665.0205574.1072293.0928566.0866719.1613231l-.2944234.9778689c-.0206444.0684665-.0928566.1073165-.1613231.086672s-.1073164-.0928566-.0866719-.1613231l.2944233-.9778689c.0205574-.0685536.0928567-.1073165.1613232-.086672z" fill="#000"/><path d="m16.1592247 39.2664108c.0684666.0206445.1072294.0928566.086672.1613231l-.2944234.9778689c-.0206444.0685536-.0928566.1073165-.1613231.086672-.0684665-.0205574-.1073164-.0928566-.0866719-.1613231l.2944233-.9778689c.0205574-.0684665.0928566-.1072294.1613231-.086672z" fill="#000"/><path d="m16.6270792 39.2664108c.0684665.0206445.1072293.0928566.0866719.1613231l-.2944233.9778689c-.0206445.0685536-.0928566.1073165-.1613231.086672-.0684665-.0205574-.1073165-.0928566-.086672-.1613231l.2944234-.9778689c.0206445-.0684665.0928566-.1072294.1613231-.086672z" fill="#000"/><path d="m48.9835988 45.8236899c.752696-.0898079 1.7011225.0715152 3.3269842-.8081835 1.6258616-.8796987 2.5214139-2.109831 3.198849-3.151811" stroke="#575a60" stroke-linecap="round"/><path d="m3.92608142 36.2080662c-1.23875588-.5851011-3.54717454-1.7162793-3.87455941-4.4173089-.38895244-3.2088664 1.52125425-4.7808085 2.47464593-5.354847" stroke="#404247" stroke-linecap="round"/><circle cx="3.869061" cy="26.168577" fill="#404247" fill-rule="nonzero" r="1.88248"/><circle cx="56.483991" cy="40.340272" fill="#575a60" fill-rule="nonzero" r="1.881365" transform="matrix(1 0 0 -1 0 80.680544)"/><path d="m19.8273219 36.8374179c5.5381212-.1929431 9.0501218-4.3224488 9.0501218-9.0693724 0-5.3259273-4.1392617-9.4360951-9.0501218-9.4360951-4.9109471 0-9.3395799 3.8404829-9.3395799 8.75143 0 4.9109472 3.9011969 9.9435835 9.3395799 9.7540375zm-.1971243 1.5551304c6.2458697 0 11.3091679-5.0632982 11.3091679-11.3091679s-5.0632982-11.3091678-11.3091679-11.3091678c-6.2458696 0-11.3091678 5.0632981-11.3091678 11.3091678s5.0632982 11.3091679 11.3091678 11.3091679z" fill="#404247"/><path d="m41.8734484 35.9288866c3.6181846 0 6.5970001-3.0856964 6.5970001-6.703881 0-3.6182716-2.723155-7.0433389-6.811633-7.0433389-4.4985802 0-6.7345428 3.251462-6.7345428 6.8696466s3.3309911 6.8775733 6.9491757 6.8775733zm0 2.0719392c4.7624288 0 8.6232078-3.860779 8.6232078-8.6232078 0-4.7625159-3.860779-8.6232078-8.6232078-8.6232078-4.7625159 0-8.6232078 3.8606919-8.6232078 8.6232078 0 4.7624288 3.8606919 8.6232078 8.6232078 8.6232078z" fill="#404247"/><path d="m32.2315183 25.7572557c-1.2771703.5903276-1.5528656 2.3766413-1.0754293 3.4097363.4775233 1.0330951 1.7021678 1.483528 2.7352629 1.0060047.0365851-.0168989.0618463-.0287455.079442-.037282l.0020035-.0018293c.0277002-.0257838.0707313-.0658533.1245637-.1138495l1.3648876 1.5296078c-.0362368.0323169-.0613237.0556617-.0882399.0807487-.0074042.0067944-.0148954.013763-.0228222.02108-.0320556.0297908-.0903305.0837974-.1623684.1378041-.1479957.110975-.3028728.1824902-.4265655.2396327l-.0108013.0049652c-2.0608765.9525206-4.5037195.0540937-5.4562401-2.0067828-.9524335-2.0608766-.0540067-4.5037195 2.0068699-5.456153.569596-.263326 1.2022578-.2966882 1.4866638-.2966882l.0660275 1.3454626c-.0754351 0-.1927689.0168988-.3202943.0367593-.1321421.0204703-.2350161.0694247-.3029599.1007834z" fill="#404247"/><path d="m6.62283949 25.3216396c-.08913017.5794042-.13369525 1.0890287-.13369525 1.5288736s.04456508.8879057.13369525 1.3441824l-.50206697 3.1269878 4.42724788-.1925947v2.0719392h-6.76404617z" fill="#404247"/><path d="m7.48565137 31.1443325c-.2450944 1.4500787-.06196828 4.3187903 1.52797023 7.0193844 1.5898862 2.7005941 4.0322937 4.2214912 7.2598011 4.9356856 2.3793416.5265649 5.9814113.089895 5.9814113.089895" stroke="#626f8a" stroke-linecap="round"/><path d="m7.48565137 31.1443325c-.2450944 1.4500787-.06196828 4.3187903 1.52797023 7.0193844 1.5898862 2.7005941 4.0322937 4.2214912 7.2598011 4.9356856 2.3793416.5265649 5.9814113.089895 5.9814113.089895" stroke="#000" stroke-linecap="round" stroke-opacity=".2"/><ellipse cx="22.238109" cy="43.04949" fill="#626f8a" fill-rule="nonzero" rx="1.658527" ry="1.263555" transform="matrix(.95888762 -.28378607 .28378607 .95888762 -11.302584 8.080733)"/><ellipse cx="22.238109" cy="43.04949" fill="#000" fill-opacity=".2" fill-rule="nonzero" rx="1.658527" ry="1.263555" transform="matrix(.95888762 -.28378607 .28378607 .95888762 -11.302584 8.080733)"/><path d="m47.54271 15.6472477c-.672285 0-1.3535113-.0713315-2.0435795-.2138953-.1826008-.0377521-.3717586.0244395-.4961417.1633274-.3320196.3706658-.67.6989101-1.01414.9848324-.4132858.3434446-.7624925.5966815-1.0477194.7597109-.2853262.16293-.5618105.2881079-.8295522.3754344-.2677416.0873265-.4423947.1368016-.523959.1484253-.0894128.0128158-.1496174-.0761003-.1149451-.1594529.2554225-.6149614.4043445-1.2806894.446766-1.9972834.0429181-.7235484-.0227506-1.3409935-.1970063-1.8523354-.0292081-.0856376-.0855382-.1586581-.156373-.2147894-.9030694-.7160973-1.6176764-1.5667111-2.1438211-2.5519409-.5472064-1.0244721-.8208096-2.11307308-.8208096-3.2656638 0-1.05944244.2357517-2.07232067.7072553-3.0386347.4715035-.96631403 1.1060364-1.79873735 1.9034993-2.49726995.7975623-.69854253 1.749312-1.25446171 2.8552491-1.66776049 1.1060364-.41330078 2.264429-.61995186 3.4752772-.61995186 1.2107487 0 2.3692407.20665108 3.4751778.61995186 1.1060364.41329878 2.0577861.96921796 2.8553484 1.66776049.7974629.6985326 1.4319958 1.53095592 1.9034993 2.49726995.4715036.96631403.7072553 1.97919226.7072553 3.0386347 0 1.05945237-.2357517 2.0723008-.7072553 3.0386546-.4715035.9662544-1.1060364 1.7986876-1.9034993 2.4972997-.7975623.6985128-1.749312 1.2544617-2.8553484 1.6677476-1.1059371.4132859-2.2644291.6199288-3.4751778.6199288zm-1.1176602-2.7941503c0 .1513064.0523562.2823458.1571679.3929197.1048117.1105738.2386328.1659104.4016622.1659104h1.1176601c.1513064 0 .2823458-.0553366.3929196-.1659104.1105739-.1105739.1659105-.2416133.1659105-.3929197v-1.1176601c0-.1630293-.0553366-.2968505-.1659105-.4016622-.1105738-.1048117-.2416132-.1571678-.3929196-.1571678h-1.1176601c-.1630294 0-.2968505.0523561-.4016622.1571678s-.1571679.2386329-.1571679.4016622zm1.1176602-10.61778095c-.9896011 0-1.8743906.2182964-2.6544676.65487928-.6171471.34545135-1.0812989.7692482-1.3923562 1.27140047-.1380931.222926-.0315925.5051625.2029671.62243236l.8896574.44482873c.3302314.16514546.8233927-.08483289 1.128191-.29331375.0722257-.04944529.1540881-.09672479.2455872-.14182859.4365332-.21538552.9633733-.32307828 1.5804211-.32307828.6170477 0 1.1438878.10769276 1.580421.32307828.4366326.21538552.6548992.47733525.6548992.78584918 0 .30852386-.2182666.57338447-.6548992.79459176-.4365332.22120729-.9633733.331801-1.580421.331801-.3143357 0-.5791964.10769276-.7945819.32307828-.2153855.21538553-.3230783.48024614-.3230783.79458183v1.67649017c0 .15135601.0523562.28232591.1571679.39292955.1048117.11057388.2386328.16591048.4016622.16591048h1.1176601c.1513064 0 .2823458-.0553366.3929196-.16591048.1105739-.11060364.1659105-.24157354.1659105-.39292955v-.27094068c0-.23808644.1696856-.44026867.3997746-.50150651.7895151-.21011017 1.456634-.57257976 2.001456-1.08740878.6345329-.59957249.9517497-1.28356061.9517497-2.05195442 0-.93138343-.4366326-1.72305437-1.3097983-2.37502277-.8731658-.6519684-1.9267467-.97795756-3.1608421-.97795756z" fill="#457eff" fill-rule="nonzero"/></g></g></svg>