<svg width="27" height="25" viewBox="0 0 27 25" fill="none" xmlns="http://www.w3.org/2000/svg">
<path d="M9.97725 22.25H8.62545C8.48963 22.25 8.35598 22.2185 8.23673 22.1585C8.11748 22.0984 8.01644 22.0118 7.94284 21.9064C7.86924 21.801 7.82544 21.6803 7.81543 21.5552C7.80543 21.4302 7.82954 21.3048 7.88557 21.1906L11.1589 14.5227L6.24381 14.4219L4.45124 16.4267C4.10948 16.8233 3.83678 17 3.14108 17H2.23108C2.087 17.0043 1.94392 16.9764 1.81398 16.9188C1.68403 16.8612 1.57105 16.7755 1.4846 16.6691C1.36374 16.5186 1.24491 16.2636 1.36069 15.8998L2.36717 12.5717C2.37479 12.5469 2.38393 12.522 2.39409 12.4977C2.39459 12.4953 2.39459 12.4929 2.39409 12.4906C2.3836 12.4663 2.37461 12.4414 2.36717 12.4161L1.35967 9.06687C1.25049 8.71016 1.36983 8.46078 1.48967 8.31406C1.57015 8.21549 1.67456 8.13573 1.79451 8.08118C1.91445 8.02664 2.04659 7.99883 2.1803 8H3.14108C3.66057 8 4.16483 8.21516 4.46139 8.5625L6.2169 10.5336L11.1589 10.4661L7.88659 3.80984C7.83048 3.69568 7.80627 3.57036 7.81617 3.44533C7.82607 3.3203 7.86977 3.19956 7.94326 3.09414C8.01675 2.98872 8.1177 2.90198 8.23687 2.84186C8.35605 2.78175 8.48965 2.75016 8.62545 2.75H9.99198C10.1826 2.75354 10.37 2.79667 10.5401 2.8762C10.7102 2.95572 10.8587 3.0696 10.9746 3.20937L17.3248 10.3344L20.2584 10.2631C20.4732 10.2523 21.0684 10.2486 21.206 10.2486C24.0122 10.25 25.688 11.0909 25.688 12.5C25.688 12.9434 25.496 13.7656 24.2117 14.2888C23.4536 14.5981 22.442 14.7547 21.205 14.7547C21.0689 14.7547 20.4753 14.7509 20.2574 14.7402L17.3243 14.668L10.9583 21.793C10.8424 21.9321 10.694 22.0454 10.5241 22.1246C10.3543 22.2037 10.1674 22.2465 9.97725 22.25V22.25Z" fill="#1262AE"/>
</svg>
