<svg width="16" height="19" viewBox="0 0 16 19" fill="none" xmlns="http://www.w3.org/2000/svg">
<path d="M15.1514 6.95804L10.4576 6.17382L8.35935 1.28358C8.30204 1.14969 8.20775 1.0413 8.09129 0.975415C7.79919 0.809644 7.44425 0.947787 7.2982 1.28358L5.19995 6.17382L0.506141 6.95804C0.376733 6.97929 0.258417 7.04943 0.167832 7.15569C0.0583187 7.28509 -0.00202784 7.45918 5.20329e-05 7.6397C0.0021319 7.82022 0.066468 7.99241 0.178924 8.11843L3.57495 11.9248L2.77263 17.2996C2.75381 17.4246 2.76585 17.5532 2.80737 17.6708C2.84889 17.7883 2.91823 17.8902 3.00754 17.9647C3.09684 18.0393 3.20253 18.0836 3.31263 18.0926C3.42272 18.1017 3.53281 18.075 3.63041 18.0158L7.82877 15.4782L12.0271 18.0158C12.1418 18.0859 12.2749 18.1093 12.4024 18.0838C12.7241 18.02 12.9404 17.6694 12.8849 17.2996L12.0826 11.9248L15.4786 8.11843C15.5711 8.0143 15.6321 7.87828 15.6506 7.72951C15.7005 7.35759 15.4749 7.0133 15.1514 6.95804V6.95804Z" fill="#FDBF00"/>
</svg>
