<svg width="25" height="25" viewBox="0 0 25 25" fill="none" xmlns="http://www.w3.org/2000/svg">
<g clip-path="url(#clip0_233_1455)">
<path d="M12.5 22.8034C9.76733 22.8034 7.14661 21.7179 5.21434 19.7856C3.28207 17.8533 2.19653 15.2326 2.19653 12.5C2.19653 9.76733 3.28207 7.14661 5.21434 5.21434C7.14661 3.28207 9.76733 2.19653 12.5 2.19653C15.2326 2.19653 17.8533 3.28207 19.7856 5.21434C21.7179 7.14661 22.8034 9.76733 22.8034 12.5C22.8034 15.2326 21.7179 17.8533 19.7856 19.7856C17.8533 21.7179 15.2326 22.8034 12.5 22.8034ZM12.5 24.2753C15.623 24.2753 18.6181 23.0347 20.8264 20.8264C23.0347 18.6181 24.2753 15.623 24.2753 12.5C24.2753 9.37695 23.0347 6.38184 20.8264 4.17353C18.6181 1.96522 15.623 0.724609 12.5 0.724609C9.37695 0.724609 6.38184 1.96522 4.17353 4.17353C1.96522 6.38184 0.724609 9.37695 0.724609 12.5C0.724609 15.623 1.96522 18.6181 4.17353 20.8264C6.38184 23.0347 9.37695 24.2753 12.5 24.2753V24.2753Z" fill="#1262AF"/>
<path d="M9.87124 7.49995C10.0101 7.42845 10.166 7.39664 10.3218 7.40802C10.4775 7.4194 10.6271 7.47354 10.7541 7.56446L16.6965 11.809C16.8065 11.8875 16.8962 11.9912 16.9581 12.1114C17.02 12.2316 17.0523 12.3648 17.0523 12.5C17.0523 12.6352 17.02 12.7685 16.9581 12.8886C16.8962 13.0088 16.8065 13.1125 16.6965 13.191L10.7541 17.4356C10.6272 17.5264 10.4776 17.5805 10.3219 17.5919C10.1663 17.6033 10.0105 17.5715 9.87164 17.5001C9.73284 17.4287 9.61641 17.3204 9.53517 17.1871C9.45392 17.0538 9.41101 16.9007 9.41113 16.7446V8.25548C9.41097 8.09942 9.45383 7.94633 9.535 7.81304C9.61617 7.67976 9.73251 7.57142 9.87124 7.49995V7.49995Z" fill="#1262AF"/>
</g>
<defs>
<clipPath id="clip0_233_1455">
<rect width="25" height="25" fill="white"/>
</clipPath>
</defs>
</svg>
